<?xml version="1.0" encoding="UTF-8"?>
<svg class="icon" width="200" height="200" p-id="1730" t="1762826233303" version="1.1" viewBox="0 0 1024 1024" xmlns="http://www.w3.org/2000/svg">
 <path class="" d="M0 512c0 283.2 228.8 512 512 512s512-228.8 512-512S795.2 0 512 0 0 228.8 0 512z" fill="#FF4D4F" data-spm-anchor-id="a313x.search_index.0.i1.1f2f3a810cvyyX" p-id="1731"/>
 <g fill="#fff" stroke-width="1.2708">
  <path d="m313.55 491.67h162.66v40.665h-162.66z" p-id="1732"/>
  <path d="m638.87 664.49v50.831h-124.03c-32.532 0-58.964-26.432-58.964-58.964v-288.72c0-32.532 26.432-58.964 58.964-58.964h124.03v50.831h-124.03c-4.0665 0-8.133 4.0665-8.133 8.133v288.72c0 4.0665 4.0665 8.133 8.133 8.133z" p-id="1733"/>
  <path d="m730.37 430.67c-60.998 0-111.83-50.831-111.83-111.83 0-60.998 50.831-111.83 111.83-111.83s111.83 50.831 111.83 111.83-50.831 111.83-111.83 111.83zm0-182.99c-38.632 0-71.164 32.532-71.164 71.164s32.532 71.164 71.164 71.164 71.164-32.532 71.164-71.164-32.532-71.164-71.164-71.164zm0 569.31c-60.998 0-111.83-50.831-111.83-111.83 0-60.998 50.831-111.83 111.83-111.83s111.83 50.831 111.83 111.83c0 60.998-50.831 111.83-111.83 111.83zm0-182.99c-38.632 0-71.164 32.532-71.164 71.164s32.532 71.164 71.164 71.164 71.164-32.532 71.164-71.164-32.532-71.164-71.164-71.164zm-487.98-20.333c-60.998 0-111.83-50.831-111.83-111.83s50.831-111.83 111.83-111.83 111.83 50.831 111.83 111.83-50.831 111.83-111.83 111.83zm0-182.99c-38.632 0-71.164 32.532-71.164 71.164s32.532 71.164 71.164 71.164 71.164-32.532 71.164-71.164-32.532-71.164-71.164-71.164z" p-id="1734"/>
 </g>
</svg>
